<svg width="483" height="67" viewBox="0 0 483 67" fill="none" xmlns="http://www.w3.org/2000/svg">
<path fill-rule="evenodd" clip-rule="evenodd" d="M38.258 0C25.2472 0 14.658 10.5892 14.658 23.6C14.658 27.0696 16.2963 31.5977 18.6946 36.3674C22.3802 36.049 26.5765 35.6732 30.819 35.2544C40.6163 34.2873 49.7512 33.1673 53.1599 32.1731C56.0554 31.3285 58.7978 29.0239 60.0408 25.5158C61.2536 22.0929 61.2373 16.8938 57.333 10.0253L57.4882 9.9371C53.2056 3.92729 46.1802 0 38.2567 0H38.258ZM37.4287 64.1703C36.917 63.5527 30.1573 55.2684 24.1351 45.8154C26.6108 45.5927 29.2032 45.3512 31.7905 45.0958C40.4393 44.2421 49.7877 43.1691 54.7362 41.9807C48.2743 52.9185 39.6662 63.4699 39.0859 64.1703C38.8815 64.4285 38.5802 64.5684 38.2573 64.5684C37.9345 64.5684 37.6332 64.4285 37.4287 64.1703ZM37.4032 29.9974C42.3188 29.9974 46.3036 26.0126 46.3036 21.0971C46.3036 16.1816 42.3188 12.1968 37.4032 12.1968C32.4877 12.1968 28.5029 16.1816 28.5029 21.0971C28.5029 26.0126 32.4877 29.9974 37.4032 29.9974Z" fill="#2E70E8"/>
<g filter="url(#filter0_d_40_17719)">
<rect x="1.25024" y="39.0756" width="24.1035" height="9.80482" rx="4.08534" transform="rotate(-7.54194 1.25024 39.0756)" fill="#6AF0FF"/>
</g>
<path d="M8.83635 45.1971L8.3503 40.2805L17.7804 39.0937L18.2611 44.2145L8.83635 45.1971Z" fill="#E6F6F8"/>
<path d="M18.8792 44.026L18.3932 39.1094L21.4878 37.9633L22.1306 44.723L18.8792 44.026Z" fill="#97F5FF"/>
<path d="M8.50642 45.1411L7.9112 40.2365L4.64136 39.7911L5.48455 46.5287L8.50642 45.1411Z" fill="#97F5FF"/>
<path d="M124.59 47.4924V48.0275H116.875L108.894 37.7718H103.855V48.0275H96.8992V16.8145C101.982 16.8145 106.664 16.8145 111.703 16.8145C119.239 16.8145 123.252 21.8532 123.252 27.3377C123.207 31.3954 122.003 35.0072 116.028 37.1475L124.59 47.4924ZM111.703 22.7896H103.855V31.8859H111.792C115.003 31.8859 116.385 29.4781 116.385 27.5161C116.34 25.3758 114.958 22.7896 111.703 22.7896ZM160.735 48.0275L158.46 42.6767H142.453L140.179 48.0275H132.687L146.689 16.8145H154.269L168.27 48.0275H160.735ZM155.83 36.5233L150.479 23.8597L145.083 36.5233H155.83ZM185.662 23.4138V32.8223H193.421C196.765 32.8223 198.415 30.6374 198.415 28.1404C198.415 25.6433 196.72 23.4138 193.421 23.4138H185.662ZM193.421 39.1987H185.662V48.0275H178.706V16.8145C183.7 16.8145 188.471 16.8145 193.421 16.8145C201.402 16.8145 205.371 21.9869 205.371 28.0066C205.371 34.2492 201.358 39.1095 193.421 39.1987ZM223.93 48.0275H217.018V16.8145H223.93V48.0275ZM238 16.8145H250.797C261.544 16.8145 266.315 24.0381 266.315 32.198C266.315 40.358 261.722 48.0275 250.797 48.0275C246.874 48.0275 241.924 48.0275 238 48.0275V16.8145ZM244.867 23.1017V41.6065H250.797C257.575 41.6065 259.448 36.6124 259.448 32.1089C259.448 27.6053 257.308 23.1017 250.797 23.1017H244.867Z" fill="#2E70E8"/>
<path d="M324.114 47.4924V48.0275H316.4L308.418 37.7718H303.379V48.0275H296.423V16.8145C301.507 16.8145 306.189 16.8145 311.227 16.8145C318.763 16.8145 322.776 21.8532 322.776 27.3377C322.731 31.3954 321.528 35.0072 315.552 37.1475L324.114 47.4924ZM311.227 22.7896H303.379V31.8859H311.316C314.527 31.8859 315.909 29.4781 315.909 27.5161C315.865 25.3758 314.482 22.7896 311.227 22.7896ZM367.577 32.421C367.577 42.5875 360.71 48.7855 350.722 48.7855C340.734 48.7855 333.867 42.5875 333.867 32.421C333.867 22.2545 340.734 16.0565 350.722 16.0565C360.71 16.0565 367.577 22.2545 367.577 32.421ZM360.754 32.421C360.754 26.7135 356.786 22.2991 350.722 22.2991C344.791 22.2991 340.689 26.7581 340.689 32.421C340.689 38.2623 344.791 42.4983 350.722 42.4983C356.786 42.4983 360.754 38.2177 360.754 32.421ZM400.976 16.8591H407.887V34.2938C407.887 43.5685 402.715 48.518 394.51 48.7855C386.351 49.053 379.439 44.3711 379.439 34.2938V16.8591H386.351V34.2938C386.351 39.8675 389.472 42.7659 394.555 42.5429C399.282 42.2308 400.976 38.9757 400.976 34.2938V16.8591ZM428.328 48.0275V23.0125H418.83V16.8145C427.927 16.8145 435.596 16.8145 444.737 16.8145V23.0125H435.24V48.0275H428.328ZM479.884 41.6065V48.0275H456.118C456.118 37.638 456.118 27.204 456.118 16.8145H479.26V23.1909H462.94V29.2105H478.324V35.3193H462.94V41.6065H479.884Z" fill="#6AF0FF"/>
<defs>
<filter id="filter0_d_40_17719" x="0.056482" y="36.4124" width="27.5694" height="15.2713" filterUnits="userSpaceOnUse" color-interpolation-filters="sRGB">
<feFlood flood-opacity="0" result="BackgroundImageFix"/>
<feColorMatrix in="SourceAlpha" type="matrix" values="0 0 0 0 0 0 0 0 0 0 0 0 0 0 0 0 0 0 127 0" result="hardAlpha"/>
<feOffset dy="1.69425"/>
<feGaussianBlur stdDeviation="0.847125"/>
<feComposite in2="hardAlpha" operator="out"/>
<feColorMatrix type="matrix" values="0 0 0 0 0 0 0 0 0 0 0 0 0 0 0 0 0 0 0.1 0"/>
<feBlend mode="normal" in2="BackgroundImageFix" result="effect1_dropShadow_40_17719"/>
<feBlend mode="normal" in="SourceGraphic" in2="effect1_dropShadow_40_17719" result="shape"/>
</filter>
</defs>
</svg>
