<svg width="762" height="104" viewBox="0 0 762 104" fill="none" xmlns="http://www.w3.org/2000/svg">
<path fill-rule="evenodd" clip-rule="evenodd" d="M60.8572 0C40.3038 0 23.5758 16.728 23.5758 37.2814C23.5758 42.7623 26.1638 49.9154 29.9525 57.4501C35.7747 56.9471 42.4038 56.3535 49.1058 55.6919C64.5828 54.1641 79.0134 52.3948 84.3982 50.8243C88.9723 49.4902 93.3045 45.8494 95.2681 40.3076C97.1839 34.9005 97.1581 26.6874 90.9906 15.837L91.2355 15.6978C84.4703 6.20399 73.3721 0 60.8552 0H60.8572ZM59.5472 101.371C58.7388 100.395 48.0604 87.3084 38.547 72.3753C42.4578 72.0235 46.5533 71.642 50.6405 71.2386C64.3031 69.8899 79.0709 68.195 86.8883 66.3176C76.6803 83.5964 63.0818 100.265 62.1652 101.371C61.8422 101.779 61.3662 102 60.8562 102C60.3462 102 59.8702 101.779 59.5472 101.371ZM59.5069 47.3874C67.272 47.3874 73.5669 41.0925 73.5669 33.3274C73.5669 25.5623 67.272 19.2674 59.5069 19.2674C51.7418 19.2674 45.4469 25.5623 45.4469 33.3274C45.4469 41.0925 51.7418 47.3874 59.5069 47.3874Z" fill="white"/>
<g filter="url(#filter0_d_18_2279)">
<rect x="2.39478" y="61.7284" width="38.0768" height="15.4889" rx="6.45369" transform="rotate(-7.54194 2.39478 61.7284)" fill="#6AF0FF"/>
</g>
<path d="M14.3794 71.3987L13.6116 63.6318L28.5085 61.7569L29.268 69.8463L14.3794 71.3987Z" fill="#E6F6F8"/>
<path d="M30.2441 69.5487L29.4763 61.7819L34.3649 59.9713L35.3803 70.6497L30.2441 69.5487Z" fill="#97F5FF"/>
<path d="M13.8575 71.3102L12.9172 63.5624L7.75181 62.8587L9.08383 73.5023L13.8575 71.3102Z" fill="#97F5FF"/>
<path d="M197.237 75.1547V76H185.05L172.442 59.7989H164.482V76H153.494V26.6923C161.524 26.6923 168.92 26.6923 176.879 26.6923C188.784 26.6923 195.123 34.652 195.123 43.316C195.053 49.726 193.151 55.4316 183.712 58.8127L197.237 75.1547ZM176.879 36.1312H164.482V50.5009H177.02C182.092 50.5009 184.276 46.6971 184.276 43.5978C184.205 40.2167 182.022 36.1312 176.879 36.1312ZM254.335 76L250.743 67.5473H225.455L221.863 76H210.029L232.147 26.6923H244.122L266.24 76H254.335ZM246.587 57.8266L238.134 37.8218L229.611 57.8266H246.587ZM293.714 37.1174V51.9801H305.97C311.253 51.9801 313.86 48.5286 313.86 44.584C313.86 40.6393 311.183 37.1174 305.97 37.1174H293.714ZM305.97 62.053H293.714V76H282.725V26.6923C290.615 26.6923 298.152 26.6923 305.97 26.6923C318.579 26.6923 324.848 34.8633 324.848 44.3726C324.848 54.2342 318.509 61.9121 305.97 62.053ZM354.167 76H343.248V26.6923H354.167V76ZM376.393 26.6923H396.61C413.586 26.6923 421.123 38.1035 421.123 50.994C421.123 63.8844 413.867 76 396.61 76C390.411 76 382.592 76 376.393 76V26.6923ZM387.241 36.6243V65.8567H396.61C407.316 65.8567 410.275 57.9675 410.275 50.8531C410.275 43.7387 406.894 36.6243 396.61 36.6243H387.241Z" fill="white"/>
<path d="M512.429 75.1547V76H500.243L487.634 59.7989H479.674V76H468.686V26.6923C476.716 26.6923 484.112 26.6923 492.072 26.6923C503.976 26.6923 510.316 34.652 510.316 43.316C510.245 49.726 508.343 55.4316 498.904 58.8127L512.429 75.1547ZM492.072 36.1312H479.674V50.5009H492.213C497.284 50.5009 499.468 46.6971 499.468 43.5978C499.397 40.2167 497.214 36.1312 492.072 36.1312ZM581.088 51.3462C581.088 67.4064 570.24 77.1975 554.462 77.1975C538.683 77.1975 527.836 67.4064 527.836 51.3462C527.836 35.2859 538.683 25.4948 554.462 25.4948C570.24 25.4948 581.088 35.2859 581.088 51.3462ZM570.311 51.3462C570.311 42.3299 564.042 35.3564 554.462 35.3564C545.093 35.3564 538.613 42.4003 538.613 51.3462C538.613 60.5737 545.093 67.2655 554.462 67.2655C564.042 67.2655 570.311 60.5033 570.311 51.3462ZM633.85 26.7627H644.768V54.3046C644.768 68.956 636.597 76.7748 623.636 77.1975C610.745 77.6201 599.827 70.224 599.827 54.3046V26.7627H610.745V54.3046C610.745 63.1096 615.676 67.6881 623.706 67.3359C631.173 66.8429 633.85 61.7008 633.85 54.3046V26.7627ZM677.058 76V36.4834H662.055V26.6923C676.424 26.6923 688.54 26.6923 702.98 26.6923V36.4834H687.976V76H677.058ZM758.503 65.8567V76H720.959C720.959 59.5876 720.959 43.1047 720.959 26.6923H757.517V36.7652H731.736V46.2745H756.037V55.9247H731.736V65.8567H758.503Z" fill="#6AF0FF"/>
<defs>
<filter id="filter0_d_18_2279" x="0.508863" y="57.5212" width="43.5522" height="24.1244" filterUnits="userSpaceOnUse" color-interpolation-filters="sRGB">
<feFlood flood-opacity="0" result="BackgroundImageFix"/>
<feColorMatrix in="SourceAlpha" type="matrix" values="0 0 0 0 0 0 0 0 0 0 0 0 0 0 0 0 0 0 127 0" result="hardAlpha"/>
<feOffset dy="2.67644"/>
<feGaussianBlur stdDeviation="1.33822"/>
<feComposite in2="hardAlpha" operator="out"/>
<feColorMatrix type="matrix" values="0 0 0 0 0 0 0 0 0 0 0 0 0 0 0 0 0 0 0.1 0"/>
<feBlend mode="normal" in2="BackgroundImageFix" result="effect1_dropShadow_18_2279"/>
<feBlend mode="normal" in="SourceGraphic" in2="effect1_dropShadow_18_2279" result="shape"/>
</filter>
</defs>
</svg>
