<svg width="8" height="9" viewBox="0 0 8 9" fill="none" xmlns="http://www.w3.org/2000/svg">
<path d="M6.85848 4.03176L1.51833 -1.30829C1.39482 -1.4319 1.22994 -1.5 1.05414 -1.5C0.878334 -1.5 0.713458 -1.4319 0.589947 -1.30829L0.196681 -0.915127C-0.0592189 -0.658934 -0.0592189 -0.242547 0.196681 0.013256L4.68094 4.49751L0.191706 8.98674C0.0681946 9.11035 0 9.27513 0 9.45084C0 9.62674 0.0681946 9.79152 0.191706 9.91523L0.584971 10.3083C0.70858 10.4319 0.873359 10.5 1.04916 10.5C1.22497 10.5 1.38984 10.4319 1.51335 10.3083L6.85848 4.96336C6.98229 4.83936 7.05028 4.6738 7.04989 4.49781C7.05028 4.32112 6.98229 4.15566 6.85848 4.03176Z" fill="#30484C"/>
</svg>
